<?xml version="1.0" standalone="no"?>
<!DOCTYPE svg PUBLIC "-//W3C//DTD SVG 20010904//EN"
 "http://www.w3.org/TR/2001/REC-SVG-20010904/DTD/svg10.dtd">
<svg version="1.0" xmlns="http://www.w3.org/2000/svg"
 width="300.000000pt" height="375.000000pt" viewBox="0 0 300.000000 375.000000"
 preserveAspectRatio="xMidYMid meet">
<metadata>
Created by potrace 1.10, written by Peter Selinger 2001-2011
</metadata>
<g transform="translate(0.000000,375.000000) scale(0.100000,-0.100000)"
fill="#000000" stroke="none">
<path d="M1362 2916 l-202 -124 -193 -46 c-105 -25 -207 -49 -225 -52 -18 -4
-36 -14 -41 -23 -5 -9 -32 -114 -61 -234 l-52 -218 -124 -202 c-112 -183 -122
-203 -110 -222 7 -11 63 -101 124 -201 l111 -181 54 -227 c30 -125 57 -229 59
-231 2 -3 107 -29 232 -59 l228 -55 189 -117 c105 -64 198 -118 207 -120 10
-3 101 47 212 116 107 66 211 124 230 129 19 5 124 30 232 56 l197 47 56 231
56 231 122 200 c67 109 121 203 120 207 -1 3 -56 95 -123 203 l-120 197 -54
226 c-30 124 -58 229 -63 232 -4 4 -109 31 -232 60 l-223 53 -187 115 c-102
63 -193 119 -202 123 -12 7 -69 -24 -217 -114z m1038 -413 l0 -158 -19 40
c-32 69 -80 126 -124 146 -76 34 -232 21 -366 -31 -84 -33 -261 -147 -261
-168 0 -12 3 -12 19 -1 195 143 334 199 495 199 108 0 155 -33 210 -145 32
-63 36 -81 36 -147 0 -181 -86 -364 -204 -433 -64 -38 -182 -61 -328 -64 -21
-1 -38 -5 -38 -11 0 -29 285 6 360 45 81 42 173 170 206 285 10 38 12 -48 13
-517 l1 -563 -835 0 -835 0 0 840 0 840 835 0 835 0 0 -157z"/>
<path d="M1120 2379 c-85 -17 -148 -56 -187 -117 -48 -74 -63 -129 -63 -225 0
-67 4 -88 30 -142 16 -34 41 -70 55 -79 14 -10 61 -23 103 -31 101 -18 175
-33 297 -57 132 -27 300 -37 293 -17 -3 10 -21 13 -69 11 -61 -3 -95 2 -329
48 -58 11 -140 27 -182 35 -43 8 -87 20 -98 27 -12 7 -34 41 -51 74 -49 103
-37 243 30 342 39 59 87 89 171 107 131 28 220 15 360 -51 127 -60 158 -104
199 -292 11 -48 33 -131 50 -184 38 -124 59 -233 62 -328 2 -73 2 -75 -22 -78
-13 -2 -51 -9 -85 -17 -77 -19 -176 -19 -284 0 -95 17 -187 42 -194 53 -2 4 0
44 4 90 5 47 5 93 0 105 -11 27 -11 28 -17 -63 -10 -152 -12 -143 29 -163 52
-25 235 -57 331 -57 74 0 191 20 246 41 23 9 23 12 16 87 -10 114 -32 221 -70
341 -18 58 -42 151 -54 206 -37 176 -68 218 -211 284 -123 57 -241 73 -360 50z"/>
<path d="M2246 1692 c-19 -21 -86 -183 -86 -208 0 -29 24 -8 38 34 7 23 19 42
25 42 7 0 21 3 33 6 17 4 22 -1 30 -27 5 -18 16 -35 23 -37 10 -3 12 0 7 14
-12 31 -26 114 -26 155 0 43 -16 51 -44 21z m27 -64 c6 -37 5 -38 -24 -38 -16
0 -29 3 -29 8 0 10 40 75 44 71 2 -2 6 -21 9 -41z"/>
<path d="M2000 1644 c-36 -18 -68 -33 -72 -34 -5 0 -8 14 -8 30 0 17 -4 30
-10 30 -11 0 -14 -138 -4 -164 12 -32 24 -15 18 25 l-7 41 43 -31 c55 -40 67
-29 17 14 l-39 34 54 30 c77 43 84 48 78 54 -3 3 -34 -10 -70 -29z"/>
<path d="M2100 1490 c0 -5 5 -10 10 -10 6 0 10 5 10 10 0 6 -4 10 -10 10 -5 0
-10 -4 -10 -10z"/>
</g>
</svg>
