<!DOCTYPE svg PUBLIC "-//W3C//DTD SVG 1.1//EN" "http://www.w3.org/Graphics/SVG/1.1/DTD/svg11.dtd">
<!-- Uploaded to: SVG Repo, www.svgrepo.com, Transformed by: SVG Repo Mixer Tools -->
<svg fill="#ffffff" width="64px" height="64px" viewBox="0 0 1000 1000" xmlns="http://www.w3.org/2000/svg" stroke="#ffffff">
<g id="SVGRepo_bgCarrier" stroke-width="0"/>
<g id="SVGRepo_tracerCarrier" stroke-linecap="round" stroke-linejoin="round"/>
<g id="SVGRepo_iconCarrier">
<path d="M500 109q-106 0-197 54-89 51-140 140-54 91-54 197t54 197q51 89 140 140 91 54 197 54t197-54q89-51 140-140 54-91 54-197t-54-197q-51-89-140-140-91-54-197-54zm78 629q0 20-14.5 34T528 786h-56q-21 0-35.5-14T422 738v-49q0-20 14.5-34t35.5-14h56q21 0 35.5 14t14.5 34v49zm-12-201q-1 20-14 34t-33 14h-38q-20 0-33-14t-14-34l-16-275q-1-19 15.5-33.5T471 214h58q21 0 37.5 14.5T582 262z"/>
</g>
</svg>